# xmcd CD database file
#
# Track frame offsets:
#	150
#	48150
#	69955
#	90860
#	134205
#	154620
#	173907
#	193970
#
# Disc length: 2959 seconds
#
# Revision: 0
# Processed by: cddbd v1.5PL3 Copyright (c) Steve Scherf et al.
# Submitted via: CDex 1.50
#
DISCID=660b8d08
DTITLE=Heat Wave - NO REGRETS [CD2]
DYEAR=2001
DGENRE=Rock and Roll
TTITLE0=LONG LONG WAY
TTITLE1=ヒヲウのテーマ
TTITLE2=ボヘミアン ブルー
TTITLE3=ゆきてかえらず
TTITLE4=ツアーの歌(東京にて)
TTITLE5=僕のほころびの場所から
TTITLE6=らっぱ
TTITLE7=ビューティフル・マイライフ
EXTD=YEAR: 2001
EXTT0=
EXTT1=
EXTT2=
EXTT3=
EXTT4=
EXTT5=
EXTT6=
EXTT7=
PLAYORDER=
